<svg width="294" height="217" viewBox="0 0 294 217" fill="none" xmlns="http://www.w3.org/2000/svg">
<g clip-path="url(#clip0_5_33)">
<g filter="url(#filter0_bd_5_33)">
<mask id="path-1-outside-1_5_33" maskUnits="userSpaceOnUse" x="-1.97329" y="-1.71466" width="298.725" height="220.732" fill="black">
<rect fill="white" x="-1.97329" y="-1.71466" width="298.725" height="220.732"/>
<path fill-rule="evenodd" clip-rule="evenodd" d="M211.701 100.465C211.658 103.868 211.472 107.229 211.15 110.539C219.906 101.52 231.26 96.1366 243.606 96.293C270.788 96.6374 292.484 123.704 292.065 156.749C291.646 189.794 269.272 216.303 242.09 215.958L50.7578 213.534C50.7458 213.534 50.7338 213.534 50.7217 213.534C50.7097 213.534 50.6977 213.534 50.6857 213.534L50.4322 213.53L50.4323 213.529C22.5865 212.987 0.407779 185.199 0.837206 151.3C1.26506 117.525 23.9743 90.3834 51.6859 90.3459C55.7028 40.3308 90.6918 1.42455 132.741 1.95722C177.032 2.51828 212.383 46.6217 211.701 100.465Z"/>
</mask>
<path fill-rule="evenodd" clip-rule="evenodd" d="M211.701 100.465C211.658 103.868 211.472 107.229 211.15 110.539C219.906 101.52 231.26 96.1366 243.606 96.293C270.788 96.6374 292.484 123.704 292.065 156.749C291.646 189.794 269.272 216.303 242.09 215.958L50.7578 213.534C50.7458 213.534 50.7338 213.534 50.7217 213.534C50.7097 213.534 50.6977 213.534 50.6857 213.534L50.4322 213.53L50.4323 213.529C22.5865 212.987 0.407779 185.199 0.837206 151.3C1.26506 117.525 23.9743 90.3834 51.6859 90.3459C55.7028 40.3308 90.6918 1.42455 132.741 1.95722C177.032 2.51828 212.383 46.6217 211.701 100.465Z" fill="url(#paint0_linear_5_33)" shape-rendering="crispEdges"/>
<path d="M211.15 110.539L209.16 110.345L208.607 116.03L212.585 111.932L211.15 110.539ZM242.09 215.958L242.065 217.958L242.09 215.958ZM50.6857 213.534L50.711 211.534L50.6857 213.534ZM50.4322 213.53L48.4324 213.505L48.4071 215.505L50.4069 215.53L50.4322 213.53ZM50.4323 213.529L52.4321 213.555L52.4573 211.568L50.4712 211.53L50.4323 213.529ZM51.6859 90.3459L51.6886 92.3459L53.5319 92.3434L53.6794 90.506L51.6859 90.3459ZM213.141 110.732C213.468 107.367 213.657 103.95 213.701 100.49L209.702 100.44C209.659 103.787 209.476 107.091 209.16 110.345L213.141 110.732ZM243.631 94.2932C230.659 94.1289 218.796 99.7914 209.715 109.146L212.585 111.932C221.015 103.248 231.861 98.1444 243.58 98.2929L243.631 94.2932ZM294.065 156.774C294.493 123.008 272.265 94.6559 243.631 94.2932L243.58 98.2929C269.31 98.6188 290.475 124.401 290.065 156.724L294.065 156.774ZM242.065 217.958C270.699 218.321 293.637 190.54 294.065 156.774L290.065 156.724C289.656 189.047 267.845 214.284 242.115 213.958L242.065 217.958ZM242.115 213.958L50.7831 211.535L50.7325 215.534L242.065 217.958L242.115 213.958ZM50.6964 215.534C50.7032 215.534 50.7098 215.534 50.7157 215.534C50.7218 215.534 50.7272 215.534 50.7325 215.534L50.7831 211.535C50.7764 211.535 50.7697 211.534 50.7638 211.534C50.7577 211.534 50.7523 211.534 50.7471 211.534L50.6964 215.534ZM50.6604 215.533C50.6656 215.533 50.671 215.534 50.6771 215.534C50.683 215.534 50.6897 215.534 50.6964 215.534L50.7471 211.534C50.7418 211.534 50.7364 211.534 50.7303 211.534C50.7244 211.534 50.7178 211.534 50.711 211.534L50.6604 215.533ZM50.711 211.534L50.4576 211.531L50.4069 215.53L50.6604 215.533L50.711 211.534ZM52.4321 213.556L52.4321 213.555L48.4324 213.504L48.4324 213.505L52.4321 213.556ZM-1.16263 151.275C-1.60119 185.894 21.105 214.959 50.3933 215.529L50.4712 211.53C24.068 211.016 2.41675 184.504 2.83705 151.325L-1.16263 151.275ZM51.6831 88.3459C22.5387 88.3853 -0.725666 116.78 -1.16263 151.275L2.83705 151.325C3.25578 118.27 25.4099 92.3815 51.6886 92.3459L51.6831 88.3459ZM132.767 -0.0426197C89.3442 -0.592685 53.7651 39.4749 49.6923 90.1858L53.6794 90.506C57.6405 41.1866 92.0394 3.44178 132.716 3.95706L132.767 -0.0426197ZM213.701 100.49C214.392 45.9257 178.509 0.536838 132.767 -0.0426197L132.716 3.95706C175.554 4.49973 210.374 47.3178 209.702 100.44L213.701 100.49Z" fill="url(#paint1_linear_5_33)" mask="url(#path-1-outside-1_5_33)"/>
</g>
</g>
<defs>
<filter id="filter0_bd_5_33" x="-16.1689" y="-11.0482" width="325.24" height="248.01" filterUnits="userSpaceOnUse" color-interpolation-filters="sRGB">
<feFlood flood-opacity="0" result="BackgroundImageFix"/>
<feGaussianBlur in="BackgroundImageFix" stdDeviation="5"/>
<feComposite in2="SourceAlpha" operator="in" result="effect1_backgroundBlur_5_33"/>
<feColorMatrix in="SourceAlpha" type="matrix" values="0 0 0 0 0 0 0 0 0 0 0 0 0 0 0 0 0 0 127 0" result="hardAlpha"/>
<feOffset dy="4"/>
<feGaussianBlur stdDeviation="7.5"/>
<feComposite in2="hardAlpha" operator="out"/>
<feColorMatrix type="matrix" values="0 0 0 0 0 0 0 0 0 0 0 0 0 0 0 0 0 0 0.1 0"/>
<feBlend mode="normal" in2="effect1_backgroundBlur_5_33" result="effect2_dropShadow_5_33"/>
<feBlend mode="normal" in="SourceGraphic" in2="effect2_dropShadow_5_33" result="shape"/>
</filter>
<linearGradient id="paint0_linear_5_33" x1="93.2848" y1="0.570748" x2="187.939" y2="203.045" gradientUnits="userSpaceOnUse">
<stop stop-color="white"/>
<stop offset="0.708333" stop-color="#9DDCFF" stop-opacity="0.69"/>
</linearGradient>
<linearGradient id="paint1_linear_5_33" x1="139.862" y1="-71.5784" x2="272.49" y2="287.9" gradientUnits="userSpaceOnUse">
<stop stop-color="white"/>
<stop offset="0.713542" stop-color="#85C6EC" stop-opacity="0.71"/>
</linearGradient>
<clipPath id="clip0_5_33">
<rect width="291.273" height="212.599" fill="white" transform="translate(2.74991 0.310516) rotate(0.725772)"/>
</clipPath>
</defs>
</svg>
